{
  "accessors": [
    {
      "bufferView": 1,
      "componentType": 5126,
      "count": 473,
      "max": [
        82.253700256347656,
        -43.719799041748047,
        1
      ],
      "min": [
        -82.894401550292969,
        -112,
        -38
      ],
      "type": "VEC3"
    },
    {
      "bufferView": 1,
      "byteOffset": 5676,
      "componentType": 5126,
      "count": 473,
      "max": [
        0.98826402425765991,
        0.81796091794967651,
        1
      ],
      "min": [
        -0.98823308944702148,
        -1,
        -1
      ],
      "type": "VEC3"
    },
    {
      "bufferView": 0,
      "componentType": 5125,
      "count": 1398,
      "max": [
        472
      ],
      "min": [
        0
      ],
      "type": "SCALAR"
    },
    {
      "bufferView": 1,
      "byteOffset": 11352,
      "componentType": 5126,
      "count": 612,
      "max": [
        71.7301025390625,
        -43.816299438476562,
        1.1000000238418579
      ],
      "min": [
        -75.922996520996094,
        -102,
        -38.900001525878906
      ],
      "type": "VEC3"
    },
    {
      "bufferView": 1,
      "byteOffset": 18696,
      "componentType": 5126,
      "count": 612,
      "max": [
        0.99079668521881104,
        0.99912762641906738,
        1
      ],
      "min": [
        -0.98654085397720337,
        -0.99998611211776733,
        -1
      ],
      "type": "VEC3"
    },
    {
      "bufferView": 0,
      "byteOffset": 5592,
      "componentType": 5125,
      "count": 1794,
      "max": [
        611
      ],
      "min": [
        0
      ],
      "type": "SCALAR"
    },
    {
      "bufferView": 1,
      "byteOffset": 26040,
      "componentType": 5126,
      "count": 15532,
      "max": [
        118,
        -14,
        38
      ],
      "min": [
        -118,
        -50,
        -67
      ],
      "type": "VEC3"
    },
    {
      "bufferView": 1,
      "byteOffset": 212424,
      "componentType": 5126,
      "count": 15532,
      "max": [
        1,
        1,
        1
      ],
      "min": [
        -1,
        -1,
        -1
      ],
      "type": "VEC3"
    },
    {
      "bufferView": 0,
      "byteOffset": 12768,
      "componentType": 5125,
      "count": 71985,
      "max": [
        15531
      ],
      "min": [
        0
      ],
      "type": "SCALAR"
    },
    {
      "bufferView": 1,
      "byteOffset": 398808,
      "componentType": 5126,
      "count": 590,
      "max": [
        63.86090087890625,
        -43.394401550292969,
        1.1499999761581421
      ],
      "min": [
        -66.236701965332031,
        -93,
        -39
      ],
      "type": "VEC3"
    },
    {
      "bufferView": 1,
      "byteOffset": 405888,
      "componentType": 5126,
      "count": 590,
      "max": [
        0.98592257499694824,
        0.99913984537124634,
        1
      ],
      "min": [
        -0.96240025758743286,
        -0.99999022483825684,
        -1
      ],
      "type": "VEC3"
    },
    {
      "bufferView": 0,
      "byteOffset": 300708,
      "componentType": 5125,
      "count": 1728,
      "max": [
        589
      ],
      "min": [
        0
      ],
      "type": "SCALAR"
    },
    {
      "bufferView": 1,
      "byteOffset": 412968,
      "componentType": 5126,
      "count": 567,
      "max": [
        44.605499267578125,
        -41.013500213623047,
        1.25
      ],
      "min": [
        -50.216201782226562,
        -78,
        -39.200000762939453
      ],
      "type": "VEC3"
    },
    {
      "bufferView": 1,
      "byteOffset": 419772,
      "componentType": 5126,
      "count": 567,
      "max": [
        0.96242010593414307,
        0.99913161993026733,
        1
      ],
      "min": [
        -0.99087411165237427,
        -1,
        -1
      ],
      "type": "VEC3"
    },
    {
      "bufferView": 0,
      "byteOffset": 307620,
      "componentType": 5125,
      "count": 1653,
      "max": [
        566
      ],
      "min": [
        0
      ],
      "type": "SCALAR"
    },
    {
      "bufferView": 1,
      "byteOffset": 426576,
      "componentType": 5126,
      "count": 400,
      "max": [
        53.335300445556641,
        -42.543399810791016,
        1.2000000476837158
      ],
      "min": [
        -57.661098480224609,
        -86,
        -39.099998474121094
      ],
      "type": "VEC3"
    },
    {
      "bufferView": 1,
      "byteOffset": 431376,
      "componentType": 5126,
      "count": 400,
      "max": [
        0.98021245002746582,
        0,
        1
      ],
      "min": [
        -0.96321898698806763,
        -0.999977707862854,
        -1
      ],
      "type": "VEC3"
    },
    {
      "bufferView": 0,
      "byteOffset": 314232,
      "componentType": 5125,
      "count": 1176,
      "max": [
        399
      ],
      "min": [
        0
      ],
      "type": "SCALAR"
    },
    {
      "bufferView": 1,
      "byteOffset": 436176,
      "componentType": 5126,
      "count": 472,
      "max": [
        35.216400146484375,
        -43.866199493408203,
        1.2999999523162842
      ],
      "min": [
        -41.170700073242188,
        -71,
        -39.299999237060547
      ],
      "type": "VEC3"
    },
    {
      "bufferView": 1,
      "byteOffset": 441840,
      "componentType": 5126,
      "count": 472,
      "max": [
        0.94822514057159424,
        0.99992549419403076,
        1
      ],
      "min": [
        -0.92928558588027954,
        -0.99999624490737915,
        -1
      ],
      "type": "VEC3"
    },
    {
      "bufferView": 0,
      "byteOffset": 318936,
      "componentType": 5125,
      "count": 1380,
      "max": [
        471
      ],
      "min": [
        0
      ],
      "type": "SCALAR"
    }
  ],
  "asset": {
    "extras": {
      "author": "Alissa T (https://sketchfab.com/foxywild)",
      "license": "CC-BY-4.0 (http://creativecommons.org/licenses/by/4.0/)",
      "source": "https://sketchfab.com/3d-models/rainbow-6d84300eb53c49ce81824d809bcb165b",
      "title": "Rainbow"
    },
    "generator": "Sketchfab-8.42.0",
    "version": "2.0"
  },
  "bufferViews": [
    {
      "buffer": 0,
      "byteLength": 324456,
      "byteOffset": 0,
      "name": "floatBufferViews",
      "target": 34963
    },
    {
      "buffer": 0,
      "byteLength": 447504,
      "byteOffset": 324456,
      "byteStride": 12,
      "name": "floatBufferViews",
      "target": 34962
    }
  ],
  "buffers": [
    {
      "byteLength": 771960,
      "uri": "scene.bin"
    }
  ],
  "materials": [
    {
      "doubleSided": true,
      "emissiveFactor": [
        0,
        0,
        0
      ],
      "name": "color_15277357",
      "pbrMetallicRoughness": {
        "baseColorFactor": [
          0.91372500000000001,
          0.11372500000000001,
          0.17647099999999999,
          1
        ],
        "metallicFactor": 0,
        "roughnessFactor": 1
      }
    },
    {
      "doubleSided": true,
      "emissiveFactor": [
        0,
        0,
        0
      ],
      "name": "color_16089887",
      "pbrMetallicRoughness": {
        "baseColorFactor": [
          0.96078399999999997,
          0.51372600000000002,
          0.121569,
          1
        ],
        "metallicFactor": 0,
        "roughnessFactor": 1
      }
    },
    {
      "doubleSided": true,
      "emissiveFactor": [
        0,
        0,
        0
      ],
      "name": "color_16448250",
      "pbrMetallicRoughness": {
        "baseColorFactor": [
          0.98039200000000004,
          0.98039200000000004,
          0.98039200000000004,
          1
        ],
        "metallicFactor": 0,
        "roughnessFactor": 1
      }
    },
    {
      "doubleSided": true,
      "emissiveFactor": [
        0,
        0,
        0
      ],
      "name": "color_16768282",
      "pbrMetallicRoughness": {
        "baseColorFactor": [
          1,
          0.86666699999999997,
          0.101961,
          1
        ],
        "metallicFactor": 0,
        "roughnessFactor": 1
      }
    },
    {
      "doubleSided": true,
      "emissiveFactor": [
        0,
        0,
        0
      ],
      "name": "color_40919",
      "pbrMetallicRoughness": {
        "baseColorFactor": [
          0,
          0.623529,
          0.84313700000000003,
          1
        ],
        "metallicFactor": 0,
        "roughnessFactor": 1
      }
    },
    {
      "doubleSided": true,
      "emissiveFactor": [
        0,
        0,
        0
      ],
      "name": "color_4634441",
      "pbrMetallicRoughness": {
        "baseColorFactor": [
          0.27450999999999998,
          0.71764700000000003,
          0.286275,
          1
        ],
        "metallicFactor": 0,
        "roughnessFactor": 1
      }
    },
    {
      "doubleSided": true,
      "emissiveFactor": [
        0,
        0,
        0
      ],
      "name": "color_8273816",
      "pbrMetallicRoughness": {
        "baseColorFactor": [
          0.494118,
          0.247059,
          0.596078,
          1
        ],
        "metallicFactor": 0,
        "roughnessFactor": 1
      }
    }
  ],
  "meshes": [
    {
      "primitives": [
        {
          "attributes": {
            "NORMAL": 1,
            "POSITION": 0
          },
          "indices": 2,
          "material": 0,
          "mode": 4
        }
      ]
    },
    {
      "primitives": [
        {
          "attributes": {
            "NORMAL": 4,
            "POSITION": 3
          },
          "indices": 5,
          "material": 1,
          "mode": 4
        }
      ]
    },
    {
      "primitives": [
        {
          "attributes": {
            "NORMAL": 7,
            "POSITION": 6
          },
          "indices": 8,
          "material": 2,
          "mode": 4
        }
      ]
    },
    {
      "primitives": [
        {
          "attributes": {
            "NORMAL": 10,
            "POSITION": 9
          },
          "indices": 11,
          "material": 3,
          "mode": 4
        }
      ]
    },
    {
      "primitives": [
        {
          "attributes": {
            "NORMAL": 13,
            "POSITION": 12
          },
          "indices": 14,
          "material": 4,
          "mode": 4
        }
      ]
    },
    {
      "primitives": [
        {
          "attributes": {
            "NORMAL": 16,
            "POSITION": 15
          },
          "indices": 17,
          "material": 5,
          "mode": 4
        }
      ]
    },
    {
      "primitives": [
        {
          "attributes": {
            "NORMAL": 19,
            "POSITION": 18
          },
          "indices": 20,
          "material": 6,
          "mode": 4
        }
      ]
    }
  ],
  "nodes": [
    {
      "children": [
        1
      ],
      "name": "RootNode (gltf orientation matrix)",
      "rotation": [
        -0.70710678118654746,
        -0,
        -0,
        0.70710678118654757
      ]
    },
    {
      "children": [
        2
      ],
      "matrix": [
        0.090966179966926575,
        0,
        0,
        0,
        0,
        -2.0198549492295509e-17,
        -0.090966179966926575,
        0,
        0,
        0.090966179966926575,
        -2.0198549492295509e-17,
        0,
        0,
        -48.499961853027344,
        -77.500007629394531,
        1
      ],
      "name": "RootNode (model correction matrix)"
    },
    {
      "children": [
        3,
        4,
        5,
        6,
        7,
        8,
        9
      ],
      "name": "tinker.obj.cleaner.materialmerger.gles"
    },
    {
      "mesh": 0,
      "name": ""
    },
    {
      "mesh": 1,
      "name": ""
    },
    {
      "mesh": 2,
      "name": ""
    },
    {
      "mesh": 3,
      "name": ""
    },
    {
      "mesh": 4,
      "name": ""
    },
    {
      "mesh": 5,
      "name": ""
    },
    {
      "mesh": 6,
      "name": ""
    }
  ],
  "scene": 0,
  "scenes": [
    {
      "name": "OSG_Scene",
      "nodes": [
        0
      ]
    }
  ]
}

