{
  "accessors": [
    {
      "bufferView": 2,
      "componentType": 5126,
      "count": 1125,
      "max": [
        8.3398036956787109,
        0.92301398515701294,
        28.23701286315918
      ],
      "min": [
        6.4937758445739746,
        -0.92301398515701294,
        4.8154587745666504
      ],
      "type": "VEC3"
    },
    {
      "bufferView": 2,
      "byteOffset": 13500,
      "componentType": 5126,
      "count": 1125,
      "max": [
        1,
        1,
        0.99038147926330566
      ],
      "min": [
        -1,
        -1,
        -0.99486911296844482
      ],
      "type": "VEC3"
    },
    {
      "bufferView": 1,
      "componentType": 5126,
      "count": 1125,
      "max": [
        1,
        1
      ],
      "min": [
        0,
        0
      ],
      "type": "VEC2"
    },
    {
      "bufferView": 0,
      "componentType": 5125,
      "count": 5952,
      "max": [
        1124
      ],
      "min": [
        0
      ],
      "type": "SCALAR"
    },
    {
      "bufferView": 2,
      "byteOffset": 27000,
      "componentType": 5126,
      "count": 1671,
      "max": [
        7.7614269256591797,
        -0.37899699807167053,
        27.490371704101562
      ],
      "min": [
        7.0718069076538086,
        -1.1457329988479614,
        19.535654067993164
      ],
      "type": "VEC3"
    },
    {
      "bufferView": 2,
      "byteOffset": 47052,
      "componentType": 5126,
      "count": 1671,
      "max": [
        0.96062535047531128,
        0.9999423623085022,
        0.99993401765823364
      ],
      "min": [
        -0.96669787168502808,
        -0.99975526332855225,
        -0.99993962049484253
      ],
      "type": "VEC3"
    },
    {
      "bufferView": 1,
      "byteOffset": 9000,
      "componentType": 5126,
      "count": 1671,
      "max": [
        1,
        1
      ],
      "min": [
        0,
        0
      ],
      "type": "VEC2"
    },
    {
      "bufferView": 0,
      "byteOffset": 23808,
      "componentType": 5125,
      "count": 8973,
      "max": [
        1670
      ],
      "min": [
        0
      ],
      "type": "SCALAR"
    },
    {
      "bufferView": 2,
      "byteOffset": 67104,
      "componentType": 5126,
      "count": 635,
      "max": [
        8.1258869171142578,
        0.58234101533889771,
        4.9520039558410645
      ],
      "min": [
        6.7156620025634766,
        -0.67174798250198364,
        2.0718040466308594
      ],
      "type": "VEC3"
    },
    {
      "bufferView": 2,
      "byteOffset": 74724,
      "componentType": 5126,
      "count": 635,
      "max": [
        0.99829697608947754,
        0.99913632869720459,
        0.48264768719673157
      ],
      "min": [
        -0.99829697608947754,
        -0.99923086166381836,
        -0.87896221876144409
      ],
      "type": "VEC3"
    },
    {
      "bufferView": 1,
      "byteOffset": 22368,
      "componentType": 5126,
      "count": 635,
      "max": [
        1,
        1
      ],
      "min": [
        0,
        0
      ],
      "type": "VEC2"
    },
    {
      "bufferView": 0,
      "byteOffset": 59700,
      "componentType": 5125,
      "count": 2718,
      "max": [
        634
      ],
      "min": [
        0
      ],
      "type": "SCALAR"
    }
  ],
  "asset": {
    "extras": {
      "author": "Androkumura (https://sketchfab.com/Androkumura)",
      "license": "CC-BY-NC-4.0 (http://creativecommons.org/licenses/by-nc/4.0/)",
      "source": "https://sketchfab.com/3d-models/fountain-pen-391df9b44f44473eb0e8d6b448ca9a66",
      "title": "Fountain pen"
    },
    "generator": "Sketchfab-7.54.0",
    "version": "2.0"
  },
  "bufferViews": [
    {
      "buffer": 0,
      "byteLength": 70572,
      "byteOffset": 0,
      "name": "floatBufferViews",
      "target": 34963
    },
    {
      "buffer": 0,
      "byteLength": 27448,
      "byteOffset": 70572,
      "byteStride": 8,
      "name": "floatBufferViews",
      "target": 34962
    },
    {
      "buffer": 0,
      "byteLength": 82344,
      "byteOffset": 98020,
      "byteStride": 12,
      "name": "floatBufferViews",
      "target": 34962
    }
  ],
  "buffers": [
    {
      "byteLength": 180364,
      "uri": "scene.bin"
    }
  ],
  "materials": [
    {
      "doubleSided": true,
      "name": "lambert2SG",
      "pbrMetallicRoughness": {
        "baseColorFactor": [
          0.0030822762267459346,
          0.0027822316383016403,
          0.0027822316383016403,
          1
        ],
        "metallicFactor": 0.71512957317073167,
        "roughnessFactor": 0.59999999999999998
      }
    },
    {
      "doubleSided": true,
      "name": "lambert3SG",
      "pbrMetallicRoughness": {
        "baseColorFactor": [
          0.20507873639031693,
          0.12743768043564743,
          0.005181516702338386,
          1
        ],
        "metallicFactor": 1,
        "roughnessFactor": 0.28487042682926833
      }
    },
    {
      "doubleSided": true,
      "name": "lambert4SG",
      "pbrMetallicRoughness": {
        "baseColorFactor": [
          0.20594136762876553,
          0.12777072776099196,
          0.0052109930891914439,
          1
        ],
        "metallicFactor": 1,
        "roughnessFactor": 0.40000000000000002
      }
    }
  ],
  "meshes": [
    {
      "primitives": [
        {
          "attributes": {
            "NORMAL": 1,
            "POSITION": 0,
            "TEXCOORD_0": 2
          },
          "indices": 3,
          "material": 0,
          "mode": 4
        }
      ]
    },
    {
      "primitives": [
        {
          "attributes": {
            "NORMAL": 5,
            "POSITION": 4,
            "TEXCOORD_0": 6
          },
          "indices": 7,
          "material": 2,
          "mode": 4
        }
      ]
    },
    {
      "primitives": [
        {
          "attributes": {
            "NORMAL": 9,
            "POSITION": 8,
            "TEXCOORD_0": 10
          },
          "indices": 11,
          "material": 1,
          "mode": 4
        }
      ]
    }
  ],
  "nodes": [
    {
      "children": [
        1
      ],
      "name": "RootNode (gltf orientation matrix)",
      "rotation": [
        -0.70710678118654746,
        -0,
        -0,
        0.70710678118654757
      ]
    },
    {
      "children": [
        2
      ],
      "matrix": [
        1,
        0,
        0,
        0,
        0,
        0.89002633094787598,
        -0.45590910315513611,
        0,
        0,
        0.45590910315513611,
        0.89002633094787598,
        0,
        0,
        -6.9212794303894043,
        1.6158164739608765,
        1
      ],
      "name": "RootNode (model correction matrix)"
    },
    {
      "children": [
        3,
        4,
        5
      ],
      "name": "c0410d46c28144eebcfa8575fa51a474.obj.cleaner.materialmerger.gles"
    },
    {
      "mesh": 0,
      "name": ""
    },
    {
      "mesh": 1,
      "name": ""
    },
    {
      "mesh": 2,
      "name": ""
    }
  ],
  "scene": 0,
  "scenes": [
    {
      "name": "OSG_Scene",
      "nodes": [
        0
      ]
    }
  ]
}

